# xmcd CD database file
#
# Track frame offsets:
#	150
#	11809
#	33813
#	54096
#	73339
#	85306
#	105170
#	121353
#	147039
#	172480
#	189828
#
# Disc length: 2768 seconds
#
# Revision: 2
# Processed by: cddbd v1.5.2PL0 Copyright (c) Steve Scherf et al.
# Submitted via: CDex 1.51
#
DISCID=8d0ace0b
DTITLE=Lonstar - Cos mi nie pasuje
DYEAR=1995
DGENRE=Country
TTITLE0=Cos mi nie pasuje
TTITLE1=Caly swiat ona i ja
TTITLE2=Bylem chmura
TTITLE3=Tocz sie wielka rzeko
TTITLE4=Dla kierowcow ze stu tysiecy szos
TTITLE5=Zmysly pod kontrola
TTITLE6=Legeda europejskiego cowboya
TTITLE7=Tym, co nie zasneli
TTITLE8=Odlegle wizje
TTITLE9=Radio
TTITLE10=Jade na poludnie
EXTD=YEAR: 1995
EXTT0=
EXTT1=
EXTT2=
EXTT3=
EXTT4=
EXTT5=
EXTT6=
EXTT7=
EXTT8=
EXTT9=
EXTT10=
PLAYORDER=
